<svg width="800" height="4076" viewBox="0 0 800 4076" fill="none" xmlns="http://www.w3.org/2000/svg">
  <title>C929-700 Window Overlay</title>
  <desc>118 individually named windows extracted from the C929-700 cabin image; left 001-059, right 060-118.</desc>
  <g id="Left-Windows">
    <g id="Window-001">
      <path id="WindowShape-001" d="M178.738 628.135 H182.438 Q185.295 628.135 185.295 630.992 V647.249 Q185.295 650.106 182.438 650.106 H178.738 Q175.883 650.106 175.883 647.249 V630.992 Q175.883 628.135 178.738 628.135Z" fill="#111820"/>
    </g>
    <g id="Window-002">
      <path id="WindowShape-002" d="M177.170 677.962 H180.870 Q183.725 677.962 183.725 680.819 V697.077 Q183.725 699.933 180.870 699.933 H177.170 Q174.313 699.933 174.313 697.077 V680.819 Q174.313 677.962 177.170 677.962Z" fill="#111820"/>
    </g>
    <g id="Window-003">
      <path id="WindowShape-003" d="M176.778 725.435 H180.477 Q183.333 725.435 183.333 728.291 V744.550 Q183.333 747.407 180.477 747.407 H176.778 Q173.921 747.407 173.921 744.550 V728.291 Q173.921 725.435 176.778 725.435Z" fill="#111820"/>
    </g>
    <g id="Window-004">
      <path id="WindowShape-004" d="M173.641 773.693 H177.340 Q180.196 773.693 180.196 776.549 V792.808 Q180.196 795.664 177.340 795.664 H173.641 Q170.784 795.664 170.784 792.808 V776.549 Q170.784 773.693 173.641 773.693Z" fill="#111820"/>
    </g>
    <g id="Window-005">
      <path id="WindowShape-005" d="M173.445 821.559 H177.143 Q180.000 821.559 180.000 824.415 V840.673 Q180.000 843.529 177.143 843.529 H173.445 Q170.588 843.529 170.588 840.673 V824.415 Q170.588 821.559 173.445 821.559Z" fill="#111820"/>
    </g>
    <g id="Window-006">
      <path id="WindowShape-006" d="M173.249 869.423 H176.947 Q179.804 869.423 179.804 872.280 V888.539 Q179.804 891.395 176.947 891.395 H173.249 Q170.392 891.395 170.392 888.539 V872.280 Q170.392 869.423 173.249 869.423Z" fill="#111820"/>
    </g>
    <g id="Window-007">
      <path id="WindowShape-007" d="M173.249 917.289 H176.947 Q179.804 917.289 179.804 920.146 V936.404 Q179.804 939.260 176.947 939.260 H173.249 Q170.392 939.260 170.392 936.404 V920.146 Q170.392 917.289 173.249 917.289Z" fill="#111820"/>
    </g>
    <g id="Window-008">
      <path id="WindowShape-008" d="M173.641 965.155 H177.340 Q180.196 965.155 180.196 968.010 V984.269 Q180.196 987.126 177.340 987.126 H173.641 Q170.784 987.126 170.784 984.269 V968.010 Q170.784 965.155 173.641 965.155Z" fill="#111820"/>
    </g>
    <g id="Window-009">
      <path id="WindowShape-009" d="M173.641 1013.019 H177.340 Q180.196 1013.019 180.196 1015.876 V1032.135 Q180.196 1034.991 177.340 1034.991 H173.641 Q170.784 1034.991 170.784 1032.135 V1015.876 Q170.784 1013.019 173.641 1013.019Z" fill="#111820"/>
    </g>
    <g id="Window-010">
      <path id="WindowShape-010" d="M173.641 1060.885 H177.340 Q180.196 1060.885 180.196 1063.742 V1080.000 Q180.196 1082.856 177.340 1082.856 H173.641 Q170.784 1082.856 170.784 1080.000 V1063.742 Q170.784 1060.885 173.641 1060.885Z" fill="#111820"/>
    </g>
    <g id="Window-011">
      <path id="WindowShape-011" d="M173.641 1108.751 H177.340 Q180.196 1108.751 180.196 1111.606 V1127.865 Q180.196 1130.722 177.340 1130.722 H173.641 Q170.784 1130.722 170.784 1127.865 V1111.606 Q170.784 1108.751 173.641 1108.751Z" fill="#111820"/>
    </g>
    <g id="Window-012">
      <path id="WindowShape-012" d="M173.641 1156.616 H177.340 Q180.196 1156.616 180.196 1159.472 V1175.731 Q180.196 1178.588 177.340 1178.588 H173.641 Q170.784 1178.588 170.784 1175.731 V1159.472 Q170.784 1156.616 173.641 1156.616Z" fill="#111820"/>
    </g>
    <g id="Window-013">
      <path id="WindowShape-013" d="M173.641 1204.481 H177.340 Q180.196 1204.481 180.196 1207.338 V1223.596 Q180.196 1226.452 177.340 1226.452 H173.641 Q170.784 1226.452 170.784 1223.596 V1207.338 Q170.784 1204.481 173.641 1204.481Z" fill="#111820"/>
    </g>
    <g id="Window-014">
      <path id="WindowShape-014" d="M173.641 1252.347 H177.340 Q180.196 1252.347 180.196 1255.203 V1271.462 Q180.196 1274.318 177.340 1274.318 H173.641 Q170.784 1274.318 170.784 1271.462 V1255.203 Q170.784 1252.347 173.641 1252.347Z" fill="#111820"/>
    </g>
    <g id="Window-015">
      <path id="WindowShape-015" d="M173.641 1539.540 H177.340 Q180.196 1539.540 180.196 1542.395 V1558.654 Q180.196 1561.510 177.340 1561.510 H173.641 Q170.784 1561.510 170.784 1558.654 V1542.395 Q170.784 1539.540 173.641 1539.540Z" fill="#111820"/>
    </g>
    <g id="Window-016">
      <path id="WindowShape-016" d="M173.641 1587.404 H177.340 Q180.196 1587.404 180.196 1590.261 V1606.520 Q180.196 1609.375 177.340 1609.375 H173.641 Q170.784 1609.375 170.784 1606.520 V1590.261 Q170.784 1587.404 173.641 1587.404Z" fill="#111820"/>
    </g>
    <g id="Window-017">
      <path id="WindowShape-017" d="M173.641 1635.270 H177.340 Q180.196 1635.270 180.196 1638.127 V1654.384 Q180.196 1657.241 177.340 1657.241 H173.641 Q170.784 1657.241 170.784 1654.384 V1638.127 Q170.784 1635.270 173.641 1635.270Z" fill="#111820"/>
    </g>
    <g id="Window-018">
      <path id="WindowShape-018" d="M173.641 1683.136 H177.340 Q180.196 1683.136 180.196 1685.991 V1702.250 Q180.196 1705.107 177.340 1705.107 H173.641 Q170.784 1705.107 170.784 1702.250 V1685.991 Q170.784 1683.136 173.641 1683.136Z" fill="#111820"/>
    </g>
    <g id="Window-019">
      <path id="WindowShape-019" d="M173.641 1731.001 H177.340 Q180.196 1731.001 180.196 1733.857 V1750.116 Q180.196 1752.971 177.340 1752.971 H173.641 Q170.784 1752.971 170.784 1750.116 V1733.857 Q170.784 1731.001 173.641 1731.001Z" fill="#111820"/>
    </g>
    <g id="Window-020">
      <path id="WindowShape-020" d="M173.641 1778.866 H177.340 Q180.196 1778.866 180.196 1781.723 V1797.981 Q180.196 1800.837 177.340 1800.837 H173.641 Q170.784 1800.837 170.784 1797.981 V1781.723 Q170.784 1778.866 173.641 1778.866Z" fill="#111820"/>
    </g>
    <g id="Window-021">
      <path id="WindowShape-021" d="M173.641 1826.731 H177.340 Q180.196 1826.731 180.196 1829.588 V1845.846 Q180.196 1848.703 177.340 1848.703 H173.641 Q170.784 1848.703 170.784 1845.846 V1829.588 Q170.784 1826.731 173.641 1826.731Z" fill="#111820"/>
    </g>
    <g id="Window-022">
      <path id="WindowShape-022" d="M173.641 1874.597 H177.340 Q180.196 1874.597 180.196 1877.453 V1893.712 Q180.196 1896.568 177.340 1896.568 H173.641 Q170.784 1896.568 170.784 1893.712 V1877.453 Q170.784 1874.597 173.641 1874.597Z" fill="#111820"/>
    </g>
    <g id="Window-023">
      <path id="WindowShape-023" d="M173.641 1922.462 H177.340 Q180.196 1922.462 180.196 1925.319 V1941.577 Q180.196 1944.433 177.340 1944.433 H173.641 Q170.784 1944.433 170.784 1941.577 V1925.319 Q170.784 1922.462 173.641 1922.462Z" fill="#111820"/>
    </g>
    <g id="Window-024">
      <path id="WindowShape-024" d="M173.641 1970.327 H177.340 Q180.196 1970.327 180.196 1973.184 V1989.443 Q180.196 1992.299 177.340 1992.299 H173.641 Q170.784 1992.299 170.784 1989.443 V1973.184 Q170.784 1970.327 173.641 1970.327Z" fill="#111820"/>
    </g>
    <g id="Window-025">
      <path id="WindowShape-025" d="M173.641 2018.193 H177.340 Q180.196 2018.193 180.196 2021.049 V2037.308 Q180.196 2040.164 177.340 2040.164 H173.641 Q170.784 2040.164 170.784 2037.308 V2021.049 Q170.784 2018.193 173.641 2018.193Z" fill="#111820"/>
    </g>
    <g id="Window-026">
      <path id="WindowShape-026" d="M173.641 2066.059 H177.340 Q180.196 2066.059 180.196 2068.914 V2085.173 Q180.196 2088.030 177.340 2088.030 H173.641 Q170.784 2088.030 170.784 2085.173 V2068.914 Q170.784 2066.059 173.641 2066.059Z" fill="#111820"/>
    </g>
    <g id="Window-027">
      <path id="WindowShape-027" d="M173.641 2113.923 H177.340 Q180.196 2113.923 180.196 2116.780 V2133.039 Q180.196 2135.895 177.340 2135.895 H173.641 Q170.784 2135.895 170.784 2133.039 V2116.780 Q170.784 2113.923 173.641 2113.923Z" fill="#111820"/>
    </g>
    <g id="Window-028">
      <path id="WindowShape-028" d="M173.641 2161.789 H177.340 Q180.196 2161.789 180.196 2164.646 V2180.904 Q180.196 2183.760 177.340 2183.760 H173.641 Q170.784 2183.760 170.784 2180.904 V2164.646 Q170.784 2161.789 173.641 2161.789Z" fill="#111820"/>
    </g>
    <g id="Window-029">
      <path id="WindowShape-029" d="M173.641 2209.655 H177.340 Q180.196 2209.655 180.196 2212.510 V2228.769 Q180.196 2231.626 177.340 2231.626 H173.641 Q170.784 2231.626 170.784 2228.769 V2212.510 Q170.784 2209.655 173.641 2209.655Z" fill="#111820"/>
    </g>
    <g id="Window-030">
      <path id="WindowShape-030" d="M173.641 2257.520 H177.340 Q180.196 2257.520 180.196 2260.376 V2276.635 Q180.196 2279.490 177.340 2279.490 H173.641 Q170.784 2279.490 170.784 2276.635 V2260.376 Q170.784 2257.520 173.641 2257.520Z" fill="#111820"/>
    </g>
    <g id="Window-031">
      <path id="WindowShape-031" d="M173.641 2305.385 H177.340 Q180.196 2305.385 180.196 2308.242 V2324.500 Q180.196 2327.356 177.340 2327.356 H173.641 Q170.784 2327.356 170.784 2324.500 V2308.242 Q170.784 2305.385 173.641 2305.385Z" fill="#111820"/>
    </g>
    <g id="Window-032">
      <path id="WindowShape-032" d="M173.641 2353.251 H177.340 Q180.196 2353.251 180.196 2356.107 V2372.365 Q180.196 2375.222 177.340 2375.222 H173.641 Q170.784 2375.222 170.784 2372.365 V2356.107 Q170.784 2353.251 173.641 2353.251Z" fill="#111820"/>
    </g>
    <g id="Window-033">
      <path id="WindowShape-033" d="M173.641 2401.116 H177.340 Q180.196 2401.116 180.196 2403.972 V2420.231 Q180.196 2423.087 177.340 2423.087 H173.641 Q170.784 2423.087 170.784 2420.231 V2403.972 Q170.784 2401.116 173.641 2401.116Z" fill="#111820"/>
    </g>
    <g id="Window-034">
      <path id="WindowShape-034" d="M173.641 2448.982 H177.340 Q180.196 2448.982 180.196 2451.838 V2468.096 Q180.196 2470.952 177.340 2470.952 H173.641 Q170.784 2470.952 170.784 2468.096 V2451.838 Q170.784 2448.982 173.641 2448.982Z" fill="#111820"/>
    </g>
    <g id="Window-035">
      <path id="WindowShape-035" d="M173.641 2496.847 H177.340 Q180.196 2496.847 180.196 2499.703 V2515.962 Q180.196 2518.818 177.340 2518.818 H173.641 Q170.784 2518.818 170.784 2515.962 V2499.703 Q170.784 2496.847 173.641 2496.847Z" fill="#111820"/>
    </g>
    <g id="Window-036">
      <path id="WindowShape-036" d="M173.641 2544.712 H177.340 Q180.196 2544.712 180.196 2547.569 V2563.827 Q180.196 2566.683 177.340 2566.683 H173.641 Q170.784 2566.683 170.784 2563.827 V2547.569 Q170.784 2544.712 173.641 2544.712Z" fill="#111820"/>
    </g>
    <g id="Window-037">
      <path id="WindowShape-037" d="M173.641 2592.578 H177.340 Q180.196 2592.578 180.196 2595.434 V2611.692 Q180.196 2614.549 177.340 2614.549 H173.641 Q170.784 2614.549 170.784 2611.692 V2595.434 Q170.784 2592.578 173.641 2592.578Z" fill="#111820"/>
    </g>
    <g id="Window-038">
      <path id="WindowShape-038" d="M173.641 2640.444 H177.340 Q180.196 2640.444 180.196 2643.299 V2659.558 Q180.196 2662.414 177.340 2662.414 H173.641 Q170.784 2662.414 170.784 2659.558 V2643.299 Q170.784 2640.444 173.641 2640.444Z" fill="#111820"/>
    </g>
    <g id="Window-039">
      <path id="WindowShape-039" d="M173.641 2688.308 H177.340 Q180.196 2688.308 180.196 2691.165 V2707.424 Q180.196 2710.279 177.340 2710.279 H173.641 Q170.784 2710.279 170.784 2707.424 V2691.165 Q170.784 2688.308 173.641 2688.308Z" fill="#111820"/>
    </g>
    <g id="Window-040">
      <path id="WindowShape-040" d="M173.641 2736.174 H177.340 Q180.196 2736.174 180.196 2739.030 V2755.288 Q180.196 2758.145 177.340 2758.145 H173.641 Q170.784 2758.145 170.784 2755.288 V2739.030 Q170.784 2736.174 173.641 2736.174Z" fill="#111820"/>
    </g>
    <g id="Window-041">
      <path id="WindowShape-041" d="M173.641 2784.040 H177.340 Q180.196 2784.040 180.196 2786.895 V2803.154 Q180.196 2806.011 177.340 2806.011 H173.641 Q170.784 2806.011 170.784 2803.154 V2786.895 Q170.784 2784.040 173.641 2784.040Z" fill="#111820"/>
    </g>
    <g id="Window-042">
      <path id="WindowShape-042" d="M173.641 2831.904 H177.340 Q180.196 2831.904 180.196 2834.761 V2851.020 Q180.196 2853.875 177.340 2853.875 H173.641 Q170.784 2853.875 170.784 2851.020 V2834.761 Q170.784 2831.904 173.641 2831.904Z" fill="#111820"/>
    </g>
    <g id="Window-043">
      <path id="WindowShape-043" d="M173.641 2879.770 H177.340 Q180.196 2879.770 180.196 2882.627 V2898.885 Q180.196 2901.741 177.340 2901.741 H173.641 Q170.784 2901.741 170.784 2898.885 V2882.627 Q170.784 2879.770 173.641 2879.770Z" fill="#111820"/>
    </g>
    <g id="Window-044">
      <path id="WindowShape-044" d="M173.641 2927.635 H177.340 Q180.196 2927.635 180.196 2930.491 V2946.750 Q180.196 2949.607 177.340 2949.607 H173.641 Q170.784 2949.607 170.784 2946.750 V2930.491 Q170.784 2927.635 173.641 2927.635Z" fill="#111820"/>
    </g>
    <g id="Window-045">
      <path id="WindowShape-045" d="M173.641 2975.501 H177.340 Q180.196 2975.501 180.196 2978.357 V2994.616 Q180.196 2997.472 177.340 2997.472 H173.641 Q170.784 2997.472 170.784 2994.616 V2978.357 Q170.784 2975.501 173.641 2975.501Z" fill="#111820"/>
    </g>
    <g id="Window-046">
      <path id="WindowShape-046" d="M173.641 3023.366 H177.340 Q180.196 3023.366 180.196 3026.222 V3042.481 Q180.196 3045.337 177.340 3045.337 H173.641 Q170.784 3045.337 170.784 3042.481 V3026.222 Q170.784 3023.366 173.641 3023.366Z" fill="#111820"/>
    </g>
    <g id="Window-047">
      <path id="WindowShape-047" d="M173.641 3071.231 H177.340 Q180.196 3071.231 180.196 3074.088 V3090.346 Q180.196 3093.203 177.340 3093.203 H173.641 Q170.784 3093.203 170.784 3090.346 V3074.088 Q170.784 3071.231 173.641 3071.231Z" fill="#111820"/>
    </g>
    <g id="Window-048">
      <path id="WindowShape-048" d="M174.425 3118.312 H178.124 Q180.980 3118.312 180.980 3121.169 V3137.427 Q180.980 3140.283 178.124 3140.283 H174.425 Q171.568 3140.283 171.568 3137.427 V3121.169 Q171.568 3118.312 174.425 3118.312Z" fill="#111820"/>
    </g>
    <g id="Window-049">
      <path id="WindowShape-049" d="M174.425 3166.178 H178.124 Q180.980 3166.178 180.980 3169.034 V3185.292 Q180.980 3188.149 178.124 3188.149 H174.425 Q171.568 3188.149 171.568 3185.292 V3169.034 Q171.568 3166.178 174.425 3166.178Z" fill="#111820"/>
    </g>
    <g id="Window-050">
      <path id="WindowShape-050" d="M173.641 3214.827 H177.340 Q180.196 3214.827 180.196 3217.684 V3233.943 Q180.196 3236.798 177.340 3236.798 H173.641 Q170.784 3236.798 170.784 3233.943 V3217.684 Q170.784 3214.827 173.641 3214.827Z" fill="#111820"/>
    </g>
    <g id="Window-051">
      <path id="WindowShape-051" d="M174.425 3261.908 H178.124 Q180.980 3261.908 180.980 3264.765 V3281.023 Q180.980 3283.879 178.124 3283.879 H174.425 Q171.568 3283.879 171.568 3281.023 V3264.765 Q171.568 3261.908 174.425 3261.908Z" fill="#111820"/>
    </g>
    <g id="Window-052">
      <path id="WindowShape-052" d="M174.425 3309.774 H178.124 Q180.980 3309.774 180.980 3312.630 V3328.889 Q180.980 3331.745 178.124 3331.745 H174.425 Q171.568 3331.745 171.568 3328.889 V3312.630 Q171.568 3309.774 174.425 3309.774Z" fill="#111820"/>
    </g>
    <g id="Window-053">
      <path id="WindowShape-053" d="M174.425 3357.639 H178.124 Q180.980 3357.639 180.980 3360.495 V3376.754 Q180.980 3379.610 178.124 3379.610 H174.425 Q171.568 3379.610 171.568 3376.754 V3360.495 Q171.568 3357.639 174.425 3357.639Z" fill="#111820"/>
    </g>
    <g id="Window-054">
      <path id="WindowShape-054" d="M175.209 3405.112 H178.908 Q181.765 3405.112 181.765 3407.969 V3424.227 Q181.765 3427.083 178.908 3427.083 H175.209 Q172.353 3427.083 172.353 3424.227 V3407.969 Q172.353 3405.112 175.209 3405.112Z" fill="#111820"/>
    </g>
    <g id="Window-055">
      <path id="WindowShape-055" d="M175.797 3452.585 H179.497 Q182.353 3452.585 182.353 3455.441 V3471.700 Q182.353 3474.557 179.497 3474.557 H175.797 Q172.941 3474.557 172.941 3471.700 V3455.441 Q172.941 3452.585 175.797 3452.585Z" fill="#111820"/>
    </g>
    <g id="Window-056">
      <path id="WindowShape-056" d="M177.562 3500.058 H181.262 Q184.117 3500.058 184.117 3502.915 V3519.173 Q184.117 3522.029 181.262 3522.029 H177.562 Q174.705 3522.029 174.705 3519.173 V3502.915 Q174.705 3500.058 177.562 3500.058Z" fill="#111820"/>
    </g>
    <g id="Window-057">
      <path id="WindowShape-057" d="M178.934 3547.924 H182.634 Q185.491 3547.924 185.491 3550.780 V3567.038 Q185.491 3569.895 182.634 3569.895 H178.934 Q176.079 3569.895 176.079 3567.038 V3550.780 Q176.079 3547.924 178.934 3547.924Z" fill="#111820"/>
    </g>
    <g id="Window-058">
      <path id="WindowShape-058" d="M181.288 3595.789 H184.987 Q187.843 3595.789 187.843 3598.645 V3614.904 Q187.843 3617.761 184.987 3617.761 H181.288 Q178.432 3617.761 178.432 3614.904 V3598.645 Q178.432 3595.789 181.288 3595.789Z" fill="#111820"/>
    </g>
    <g id="Window-059">
      <path id="WindowShape-059" d="M183.053 3643.654 H186.751 Q189.608 3643.654 189.608 3646.511 V3662.769 Q189.608 3665.625 186.751 3665.625 H183.053 Q180.196 3665.625 180.196 3662.769 V3646.511 Q180.196 3643.654 183.053 3643.654Z" fill="#111820"/>
    </g>
  </g>
  <g id="Right-Windows">
    <g id="Window-060">
      <path id="WindowShape-060" d="M617.170 628.135 H620.870 Q623.725 628.135 623.725 630.992 V647.249 Q623.725 650.106 620.870 650.106 H617.170 Q614.313 650.106 614.313 647.249 V630.992 Q614.313 628.135 617.170 628.135Z" fill="#111820"/>
    </g>
    <g id="Window-061">
      <path id="WindowShape-061" d="M618.738 677.962 H622.438 Q625.295 677.962 625.295 680.819 V697.077 Q625.295 699.933 622.438 699.933 H618.738 Q615.883 699.933 615.883 697.077 V680.819 Q615.883 677.962 618.738 677.962Z" fill="#111820"/>
    </g>
    <g id="Window-062">
      <path id="WindowShape-062" d="M619.130 725.435 H622.830 Q625.687 725.435 625.687 728.291 V744.550 Q625.687 747.407 622.830 747.407 H619.130 Q616.275 747.407 616.275 744.550 V728.291 Q616.275 725.435 619.130 725.435Z" fill="#111820"/>
    </g>
    <g id="Window-063">
      <path id="WindowShape-063" d="M622.268 773.693 H625.967 Q628.824 773.693 628.824 776.549 V792.808 Q628.824 795.664 625.967 795.664 H622.268 Q619.412 795.664 619.412 792.808 V776.549 Q619.412 773.693 622.268 773.693Z" fill="#111820"/>
    </g>
    <g id="Window-064">
      <path id="WindowShape-064" d="M622.464 821.559 H626.163 Q629.020 821.559 629.020 824.415 V840.673 Q629.020 843.529 626.163 843.529 H622.464 Q619.608 843.529 619.608 840.673 V824.415 Q619.608 821.559 622.464 821.559Z" fill="#111820"/>
    </g>
    <g id="Window-065">
      <path id="WindowShape-065" d="M622.660 869.423 H626.359 Q629.216 869.423 629.216 872.280 V888.539 Q629.216 891.395 626.359 891.395 H622.660 Q619.804 891.395 619.804 888.539 V872.280 Q619.804 869.423 622.660 869.423Z" fill="#111820"/>
    </g>
    <g id="Window-066">
      <path id="WindowShape-066" d="M622.660 917.289 H626.359 Q629.216 917.289 629.216 920.146 V936.404 Q629.216 939.260 626.359 939.260 H622.660 Q619.804 939.260 619.804 936.404 V920.146 Q619.804 917.289 622.660 917.289Z" fill="#111820"/>
    </g>
    <g id="Window-067">
      <path id="WindowShape-067" d="M622.857 965.155 H626.555 Q629.412 965.155 629.412 968.010 V984.269 Q629.412 987.126 626.555 987.126 H622.857 Q620.000 987.126 620.000 984.269 V968.010 Q620.000 965.155 622.857 965.155Z" fill="#111820"/>
    </g>
    <g id="Window-068">
      <path id="WindowShape-068" d="M623.053 1013.019 H626.751 Q629.608 1013.019 629.608 1015.876 V1032.135 Q629.608 1034.991 626.751 1034.991 H623.053 Q620.196 1034.991 620.196 1032.135 V1015.876 Q620.196 1013.019 623.053 1013.019Z" fill="#111820"/>
    </g>
    <g id="Window-069">
      <path id="WindowShape-069" d="M622.464 1060.885 H626.163 Q629.020 1060.885 629.020 1063.742 V1080.000 Q629.020 1082.856 626.163 1082.856 H622.464 Q619.608 1082.856 619.608 1080.000 V1063.742 Q619.608 1060.885 622.464 1060.885Z" fill="#111820"/>
    </g>
    <g id="Window-070">
      <path id="WindowShape-070" d="M622.464 1108.751 H626.163 Q629.020 1108.751 629.020 1111.606 V1127.865 Q629.020 1130.722 626.163 1130.722 H622.464 Q619.608 1130.722 619.608 1127.865 V1111.606 Q619.608 1108.751 622.464 1108.751Z" fill="#111820"/>
    </g>
    <g id="Window-071">
      <path id="WindowShape-071" d="M622.464 1156.616 H626.163 Q629.020 1156.616 629.020 1159.472 V1175.731 Q629.020 1178.588 626.163 1178.588 H622.464 Q619.608 1178.588 619.608 1175.731 V1159.472 Q619.608 1156.616 622.464 1156.616Z" fill="#111820"/>
    </g>
    <g id="Window-072">
      <path id="WindowShape-072" d="M622.464 1204.481 H626.163 Q629.020 1204.481 629.020 1207.338 V1223.596 Q629.020 1226.452 626.163 1226.452 H622.464 Q619.608 1226.452 619.608 1223.596 V1207.338 Q619.608 1204.481 622.464 1204.481Z" fill="#111820"/>
    </g>
    <g id="Window-073">
      <path id="WindowShape-073" d="M622.464 1252.347 H626.163 Q629.020 1252.347 629.020 1255.203 V1271.462 Q629.020 1274.318 626.163 1274.318 H622.464 Q619.608 1274.318 619.608 1271.462 V1255.203 Q619.608 1252.347 622.464 1252.347Z" fill="#111820"/>
    </g>
    <g id="Window-074">
      <path id="WindowShape-074" d="M622.268 1539.540 H625.967 Q628.824 1539.540 628.824 1542.395 V1558.654 Q628.824 1561.510 625.967 1561.510 H622.268 Q619.412 1561.510 619.412 1558.654 V1542.395 Q619.412 1539.540 622.268 1539.540Z" fill="#111820"/>
    </g>
    <g id="Window-075">
      <path id="WindowShape-075" d="M622.268 1587.404 H625.967 Q628.824 1587.404 628.824 1590.261 V1606.520 Q628.824 1609.375 625.967 1609.375 H622.268 Q619.412 1609.375 619.412 1606.520 V1590.261 Q619.412 1587.404 622.268 1587.404Z" fill="#111820"/>
    </g>
    <g id="Window-076">
      <path id="WindowShape-076" d="M622.268 1635.270 H625.967 Q628.824 1635.270 628.824 1638.127 V1654.384 Q628.824 1657.241 625.967 1657.241 H622.268 Q619.412 1657.241 619.412 1654.384 V1638.127 Q619.412 1635.270 622.268 1635.270Z" fill="#111820"/>
    </g>
    <g id="Window-077">
      <path id="WindowShape-077" d="M622.268 1683.136 H625.967 Q628.824 1683.136 628.824 1685.991 V1702.250 Q628.824 1705.107 625.967 1705.107 H622.268 Q619.412 1705.107 619.412 1702.250 V1685.991 Q619.412 1683.136 622.268 1683.136Z" fill="#111820"/>
    </g>
    <g id="Window-078">
      <path id="WindowShape-078" d="M622.268 1731.001 H625.967 Q628.824 1731.001 628.824 1733.857 V1750.116 Q628.824 1752.971 625.967 1752.971 H622.268 Q619.412 1752.971 619.412 1750.116 V1733.857 Q619.412 1731.001 622.268 1731.001Z" fill="#111820"/>
    </g>
    <g id="Window-079">
      <path id="WindowShape-079" d="M622.268 1778.866 H625.967 Q628.824 1778.866 628.824 1781.723 V1797.981 Q628.824 1800.837 625.967 1800.837 H622.268 Q619.412 1800.837 619.412 1797.981 V1781.723 Q619.412 1778.866 622.268 1778.866Z" fill="#111820"/>
    </g>
    <g id="Window-080">
      <path id="WindowShape-080" d="M622.268 1826.731 H625.967 Q628.824 1826.731 628.824 1829.588 V1845.846 Q628.824 1848.703 625.967 1848.703 H622.268 Q619.412 1848.703 619.412 1845.846 V1829.588 Q619.412 1826.731 622.268 1826.731Z" fill="#111820"/>
    </g>
    <g id="Window-081">
      <path id="WindowShape-081" d="M622.268 1874.597 H625.967 Q628.824 1874.597 628.824 1877.453 V1893.712 Q628.824 1896.568 625.967 1896.568 H622.268 Q619.412 1896.568 619.412 1893.712 V1877.453 Q619.412 1874.597 622.268 1874.597Z" fill="#111820"/>
    </g>
    <g id="Window-082">
      <path id="WindowShape-082" d="M622.268 1922.462 H625.967 Q628.824 1922.462 628.824 1925.319 V1941.577 Q628.824 1944.433 625.967 1944.433 H622.268 Q619.412 1944.433 619.412 1941.577 V1925.319 Q619.412 1922.462 622.268 1922.462Z" fill="#111820"/>
    </g>
    <g id="Window-083">
      <path id="WindowShape-083" d="M622.268 1970.327 H625.967 Q628.824 1970.327 628.824 1973.184 V1989.443 Q628.824 1992.299 625.967 1992.299 H622.268 Q619.412 1992.299 619.412 1989.443 V1973.184 Q619.412 1970.327 622.268 1970.327Z" fill="#111820"/>
    </g>
    <g id="Window-084">
      <path id="WindowShape-084" d="M622.268 2018.193 H625.967 Q628.824 2018.193 628.824 2021.049 V2037.308 Q628.824 2040.164 625.967 2040.164 H622.268 Q619.412 2040.164 619.412 2037.308 V2021.049 Q619.412 2018.193 622.268 2018.193Z" fill="#111820"/>
    </g>
    <g id="Window-085">
      <path id="WindowShape-085" d="M622.268 2066.059 H625.967 Q628.824 2066.059 628.824 2068.914 V2085.173 Q628.824 2088.030 625.967 2088.030 H622.268 Q619.412 2088.030 619.412 2085.173 V2068.914 Q619.412 2066.059 622.268 2066.059Z" fill="#111820"/>
    </g>
    <g id="Window-086">
      <path id="WindowShape-086" d="M622.268 2113.923 H625.967 Q628.824 2113.923 628.824 2116.780 V2133.039 Q628.824 2135.895 625.967 2135.895 H622.268 Q619.412 2135.895 619.412 2133.039 V2116.780 Q619.412 2113.923 622.268 2113.923Z" fill="#111820"/>
    </g>
    <g id="Window-087">
      <path id="WindowShape-087" d="M622.268 2161.789 H625.967 Q628.824 2161.789 628.824 2164.646 V2180.904 Q628.824 2183.760 625.967 2183.760 H622.268 Q619.412 2183.760 619.412 2180.904 V2164.646 Q619.412 2161.789 622.268 2161.789Z" fill="#111820"/>
    </g>
    <g id="Window-088">
      <path id="WindowShape-088" d="M622.268 2209.655 H625.967 Q628.824 2209.655 628.824 2212.510 V2228.769 Q628.824 2231.626 625.967 2231.626 H622.268 Q619.412 2231.626 619.412 2228.769 V2212.510 Q619.412 2209.655 622.268 2209.655Z" fill="#111820"/>
    </g>
    <g id="Window-089">
      <path id="WindowShape-089" d="M622.268 2257.520 H625.967 Q628.824 2257.520 628.824 2260.376 V2276.635 Q628.824 2279.490 625.967 2279.490 H622.268 Q619.412 2279.490 619.412 2276.635 V2260.376 Q619.412 2257.520 622.268 2257.520Z" fill="#111820"/>
    </g>
    <g id="Window-090">
      <path id="WindowShape-090" d="M622.268 2305.385 H625.967 Q628.824 2305.385 628.824 2308.242 V2324.500 Q628.824 2327.356 625.967 2327.356 H622.268 Q619.412 2327.356 619.412 2324.500 V2308.242 Q619.412 2305.385 622.268 2305.385Z" fill="#111820"/>
    </g>
    <g id="Window-091">
      <path id="WindowShape-091" d="M622.268 2353.251 H625.967 Q628.824 2353.251 628.824 2356.107 V2372.365 Q628.824 2375.222 625.967 2375.222 H622.268 Q619.412 2375.222 619.412 2372.365 V2356.107 Q619.412 2353.251 622.268 2353.251Z" fill="#111820"/>
    </g>
    <g id="Window-092">
      <path id="WindowShape-092" d="M622.268 2401.116 H625.967 Q628.824 2401.116 628.824 2403.972 V2420.231 Q628.824 2423.087 625.967 2423.087 H622.268 Q619.412 2423.087 619.412 2420.231 V2403.972 Q619.412 2401.116 622.268 2401.116Z" fill="#111820"/>
    </g>
    <g id="Window-093">
      <path id="WindowShape-093" d="M622.268 2448.982 H625.967 Q628.824 2448.982 628.824 2451.838 V2468.096 Q628.824 2470.952 625.967 2470.952 H622.268 Q619.412 2470.952 619.412 2468.096 V2451.838 Q619.412 2448.982 622.268 2448.982Z" fill="#111820"/>
    </g>
    <g id="Window-094">
      <path id="WindowShape-094" d="M622.268 2496.847 H625.967 Q628.824 2496.847 628.824 2499.703 V2515.962 Q628.824 2518.818 625.967 2518.818 H622.268 Q619.412 2518.818 619.412 2515.962 V2499.703 Q619.412 2496.847 622.268 2496.847Z" fill="#111820"/>
    </g>
    <g id="Window-095">
      <path id="WindowShape-095" d="M622.268 2544.712 H625.967 Q628.824 2544.712 628.824 2547.569 V2563.827 Q628.824 2566.683 625.967 2566.683 H622.268 Q619.412 2566.683 619.412 2563.827 V2547.569 Q619.412 2544.712 622.268 2544.712Z" fill="#111820"/>
    </g>
    <g id="Window-096">
      <path id="WindowShape-096" d="M622.268 2592.578 H625.967 Q628.824 2592.578 628.824 2595.434 V2611.692 Q628.824 2614.549 625.967 2614.549 H622.268 Q619.412 2614.549 619.412 2611.692 V2595.434 Q619.412 2592.578 622.268 2592.578Z" fill="#111820"/>
    </g>
    <g id="Window-097">
      <path id="WindowShape-097" d="M622.268 2640.444 H625.967 Q628.824 2640.444 628.824 2643.299 V2659.558 Q628.824 2662.414 625.967 2662.414 H622.268 Q619.412 2662.414 619.412 2659.558 V2643.299 Q619.412 2640.444 622.268 2640.444Z" fill="#111820"/>
    </g>
    <g id="Window-098">
      <path id="WindowShape-098" d="M622.268 2688.308 H625.967 Q628.824 2688.308 628.824 2691.165 V2707.424 Q628.824 2710.279 625.967 2710.279 H622.268 Q619.412 2710.279 619.412 2707.424 V2691.165 Q619.412 2688.308 622.268 2688.308Z" fill="#111820"/>
    </g>
    <g id="Window-099">
      <path id="WindowShape-099" d="M622.268 2736.174 H625.967 Q628.824 2736.174 628.824 2739.030 V2755.288 Q628.824 2758.145 625.967 2758.145 H622.268 Q619.412 2758.145 619.412 2755.288 V2739.030 Q619.412 2736.174 622.268 2736.174Z" fill="#111820"/>
    </g>
    <g id="Window-100">
      <path id="WindowShape-100" d="M622.268 2784.040 H625.967 Q628.824 2784.040 628.824 2786.895 V2803.154 Q628.824 2806.011 625.967 2806.011 H622.268 Q619.412 2806.011 619.412 2803.154 V2786.895 Q619.412 2784.040 622.268 2784.040Z" fill="#111820"/>
    </g>
    <g id="Window-101">
      <path id="WindowShape-101" d="M622.268 2831.904 H625.967 Q628.824 2831.904 628.824 2834.761 V2851.020 Q628.824 2853.875 625.967 2853.875 H622.268 Q619.412 2853.875 619.412 2851.020 V2834.761 Q619.412 2831.904 622.268 2831.904Z" fill="#111820"/>
    </g>
    <g id="Window-102">
      <path id="WindowShape-102" d="M622.268 2879.770 H625.967 Q628.824 2879.770 628.824 2882.627 V2898.885 Q628.824 2901.741 625.967 2901.741 H622.268 Q619.412 2901.741 619.412 2898.885 V2882.627 Q619.412 2879.770 622.268 2879.770Z" fill="#111820"/>
    </g>
    <g id="Window-103">
      <path id="WindowShape-103" d="M622.268 2927.635 H625.967 Q628.824 2927.635 628.824 2930.491 V2946.750 Q628.824 2949.607 625.967 2949.607 H622.268 Q619.412 2949.607 619.412 2946.750 V2930.491 Q619.412 2927.635 622.268 2927.635Z" fill="#111820"/>
    </g>
    <g id="Window-104">
      <path id="WindowShape-104" d="M622.268 2975.501 H625.967 Q628.824 2975.501 628.824 2978.357 V2994.616 Q628.824 2997.472 625.967 2997.472 H622.268 Q619.412 2997.472 619.412 2994.616 V2978.357 Q619.412 2975.501 622.268 2975.501Z" fill="#111820"/>
    </g>
    <g id="Window-105">
      <path id="WindowShape-105" d="M622.268 3023.366 H625.967 Q628.824 3023.366 628.824 3026.222 V3042.481 Q628.824 3045.337 625.967 3045.337 H622.268 Q619.412 3045.337 619.412 3042.481 V3026.222 Q619.412 3023.366 622.268 3023.366Z" fill="#111820"/>
    </g>
    <g id="Window-106">
      <path id="WindowShape-106" d="M622.268 3071.231 H625.967 Q628.824 3071.231 628.824 3074.088 V3090.346 Q628.824 3093.203 625.967 3093.203 H622.268 Q619.412 3093.203 619.412 3090.346 V3074.088 Q619.412 3071.231 622.268 3071.231Z" fill="#111820"/>
    </g>
    <g id="Window-107">
      <path id="WindowShape-107" d="M621.484 3118.312 H625.183 Q628.039 3118.312 628.039 3121.169 V3137.427 Q628.039 3140.283 625.183 3140.283 H621.484 Q618.628 3140.283 618.628 3137.427 V3121.169 Q618.628 3118.312 621.484 3118.312Z" fill="#111820"/>
    </g>
    <g id="Window-108">
      <path id="WindowShape-108" d="M621.484 3166.178 H625.183 Q628.039 3166.178 628.039 3169.034 V3185.292 Q628.039 3188.149 625.183 3188.149 H621.484 Q618.628 3188.149 618.628 3185.292 V3169.034 Q618.628 3166.178 621.484 3166.178Z" fill="#111820"/>
    </g>
    <g id="Window-109">
      <path id="WindowShape-109" d="M622.268 3214.827 H625.967 Q628.824 3214.827 628.824 3217.684 V3233.943 Q628.824 3236.798 625.967 3236.798 H622.268 Q619.412 3236.798 619.412 3233.943 V3217.684 Q619.412 3214.827 622.268 3214.827Z" fill="#111820"/>
    </g>
    <g id="Window-110">
      <path id="WindowShape-110" d="M621.484 3261.908 H625.183 Q628.039 3261.908 628.039 3264.765 V3281.023 Q628.039 3283.879 625.183 3283.879 H621.484 Q618.628 3283.879 618.628 3281.023 V3264.765 Q618.628 3261.908 621.484 3261.908Z" fill="#111820"/>
    </g>
    <g id="Window-111">
      <path id="WindowShape-111" d="M621.484 3309.774 H625.183 Q628.039 3309.774 628.039 3312.630 V3328.889 Q628.039 3331.745 625.183 3331.745 H621.484 Q618.628 3331.745 618.628 3328.889 V3312.630 Q618.628 3309.774 621.484 3309.774Z" fill="#111820"/>
    </g>
    <g id="Window-112">
      <path id="WindowShape-112" d="M621.484 3357.639 H625.183 Q628.039 3357.639 628.039 3360.495 V3376.754 Q628.039 3379.610 625.183 3379.610 H621.484 Q618.628 3379.610 618.628 3376.754 V3360.495 Q618.628 3357.639 621.484 3357.639Z" fill="#111820"/>
    </g>
    <g id="Window-113">
      <path id="WindowShape-113" d="M620.700 3405.112 H624.399 Q627.255 3405.112 627.255 3407.969 V3424.227 Q627.255 3427.083 624.399 3427.083 H620.700 Q617.843 3427.083 617.843 3424.227 V3407.969 Q617.843 3405.112 620.700 3405.112Z" fill="#111820"/>
    </g>
    <g id="Window-114">
      <path id="WindowShape-114" d="M620.111 3452.585 H623.810 Q626.667 3452.585 626.667 3455.441 V3471.700 Q626.667 3474.557 623.810 3474.557 H620.111 Q617.255 3474.557 617.255 3471.700 V3455.441 Q617.255 3452.585 620.111 3452.585Z" fill="#111820"/>
    </g>
    <g id="Window-115">
      <path id="WindowShape-115" d="M618.542 3500.058 H622.242 Q625.099 3500.058 625.099 3502.915 V3519.173 Q625.099 3522.029 622.242 3522.029 H618.542 Q615.687 3522.029 615.687 3519.173 V3502.915 Q615.687 3500.058 618.542 3500.058Z" fill="#111820"/>
    </g>
    <g id="Window-116">
      <path id="WindowShape-116" d="M616.974 3547.924 H620.674 Q623.529 3547.924 623.529 3550.780 V3567.038 Q623.529 3569.895 620.674 3569.895 H616.974 Q614.117 3569.895 614.117 3567.038 V3550.780 Q614.117 3547.924 616.974 3547.924Z" fill="#111820"/>
    </g>
    <g id="Window-117">
      <path id="WindowShape-117" d="M614.425 3595.789 H618.124 Q620.980 3595.789 620.980 3598.645 V3614.904 Q620.980 3617.761 618.124 3617.761 H614.425 Q611.568 3617.761 611.568 3614.904 V3598.645 Q611.568 3595.789 614.425 3595.789Z" fill="#111820"/>
    </g>
    <g id="Window-118">
      <path id="WindowShape-118" d="M612.857 3643.654 H616.555 Q619.412 3643.654 619.412 3646.511 V3662.769 Q619.412 3665.625 616.555 3665.625 H612.857 Q610.000 3665.625 610.000 3662.769 V3646.511 Q610.000 3643.654 612.857 3643.654Z" fill="#111820"/>
    </g>
  </g>
</svg>
