<svg width="31" height="41" viewBox="0 0 31 41" fill="none" xmlns="http://www.w3.org/2000/svg">
  <rect x="0.5" y="0.5" width="30" height="40" rx="15" fill="#0B1423" stroke="url(#mark-stroke)"/>
  <path d="M6 20.08V23.5C6 25.9 10.12 27.92 15 27.92C19.88 27.92 24 25.9 24 23.5V20.08C21.91 21.42 18.59 22.32 15 22.32C11.41 22.32 8.09 21.42 6 20.08Z" fill="#5488FD"/>
  <path d="M6 28.18V31.6C6 34 10.12 36.02 15 36.02C19.88 36.02 24 34 24 31.6V28.18C21.91 29.52 18.59 30.42 15 30.42C11.41 30.42 8.09 29.52 6 28.18Z" fill="#714CFF"/>
  <path d="M15 8.5C10.12 8.5 6 10.52 6 12.92V17.42C6 18.36 9.49 20.58 15 20.58C20.51 20.58 24 18.36 24 17.42V12.92C24 10.52 19.88 8.5 15 8.5Z" fill="#F47F02"/>
  <defs>
    <linearGradient id="mark-stroke" x1="2.88" y1="41" x2="31" y2="20.5" gradientUnits="userSpaceOnUse">
      <stop stop-color="#5488FD"/>
      <stop offset="1" stop-color="white" stop-opacity="0.1"/>
    </linearGradient>
  </defs>
</svg>
