<svg width="482" height="70" viewBox="0 0 482 70" fill="none" xmlns="http://www.w3.org/2000/svg">
<g id="Frame 4">
<mask id="path-1-inside-1_139_2175" fill="white">
<path d="M0 0H482V10C482 43.1371 455.137 70 422 70H0V0Z"/>
</mask>
<path d="M0 0H482V10C482 43.1371 455.137 70 422 70H0V0Z" fill="#151A24"/>
<path d="M0 0H482H0M482.5 11.5C482.5 44.9132 455.413 72 422 72H0V68H422C454.861 68 481.5 42.0325 481.5 10L482.5 11.5ZM481.5 10M0 70V0V70M482.5 0V11.5C482.5 44.9132 455.413 72 422 72V68C454.861 68 481.5 42.0325 481.5 10V0H482.5Z" fill="url(#paint0_radial_139_2175)" mask="url(#path-1-inside-1_139_2175)"/>
<path d="M0 0H482H0M482.5 11.5C482.5 44.9132 455.413 72 422 72H0V68H422C454.861 68 481.5 42.0325 481.5 10L482.5 11.5ZM481.5 10M0 70V0V70M482.5 0V11.5C482.5 44.9132 455.413 72 422 72V68C454.861 68 481.5 42.0325 481.5 10V0H482.5Z" fill="url(#paint1_linear_139_2175)" mask="url(#path-1-inside-1_139_2175)"/>
<g id="Frame 2">
<rect x="30.5" y="10.5" width="37" height="49" rx="18.5" stroke="url(#paint2_linear_139_2175)"/>
<g id="icon">
<g id="Group 1">
<path id="Vector" d="M39 33.4009V37.2121C39 39.8799 43.575 42.1298 49 42.1298C54.425 42.1298 59 39.8799 59 37.2121V33.4009C56.675 34.8885 52.9875 35.8966 49 35.8966C45.0125 35.8966 41.325 34.8885 39 33.4009Z" fill="#5488FD"/>
<path id="Vector_2" d="M39 42.4009V46.2121C39 48.8799 43.575 51.1298 49 51.1298C54.425 51.1298 59 48.8799 59 46.2121V42.4009C56.675 43.8885 52.9875 44.8966 49 44.8966C45.0125 44.8966 41.325 43.8885 39 42.4009Z" fill="#4400F2"/>
<path id="Vector_3" d="M49 20C43.575 20 39 22.2498 39 24.9177V29.9215C39 30.9665 42.875 33.4376 49 33.4376C55.125 33.4376 59 30.9665 59 29.9215V24.9177C59 22.2498 54.425 20 49 20Z" fill="#F47F02"/>
</g>
</g>
<g id="icon_2" filter="url(#filter0_f_139_2175)">
<rect id="Rectangle 2" x="47" y="46.033" width="4" height="3.96694" rx="1.98347" fill="#3CC3DF"/>
</g>
</g>
<path id="&#229;&#137;&#141;&#228;&#184;&#173;&#229;&#144;&#142;&#232;&#136;&#177;&#231;&#189;&#145;&#232;&#129;&#148;&#230;&#149;&#176;&#230;&#141;&#174;&#230;&#152;&#190;&#231;&#164;&#186;&#229;&#185;&#179;&#229;&#143;&#176;" d="M96.128 46.288L97.6 44.528L97.76 43.312H94.112L93.696 46.288H88.832L91.072 30.544H104.448L102.528 44.176C102.443 44.7733 102.155 45.2747 101.664 45.68C101.195 46.0853 100.651 46.288 100.032 46.288H96.128ZM94.688 26.288L94.592 24.464L93.568 23.248H100.608L100.768 26.288H106.88L107.552 24.272L106.688 23.248H113.984L112.928 26.288H116.576L116.16 29.328H90.624L91.04 26.288H94.688ZM105.856 46.256L108.736 43.28L110.528 30.544H115.392L113.472 44.144C113.387 44.7413 113.099 45.2427 112.608 45.648C112.117 46.0533 111.573 46.256 110.976 46.256H105.856ZM109.184 31.44L107.52 43.312H103.872L105.536 31.44H109.184ZM94.528 40.272H98.208L98.464 38.448H94.784L94.528 40.272ZM95.232 35.408H98.88L99.136 33.584H95.488L95.232 35.408ZM128.382 38.128H118.654L120.126 27.824H129.822L130.302 24.464L129.278 23.248H136.574L135.902 27.824H145.662L144.19 38.128H134.462L133.31 46.288H127.23L128.382 38.128ZM135.486 30.864L134.878 35.088H138.558L139.134 30.864H135.486ZM128.798 35.088L129.406 30.864H125.758L125.182 35.088H128.798ZM156.507 26.896L156.155 28.72H175.867L175.451 31.76H155.547L152.731 46.288H147.259L151.387 25.008L150.395 23.856H175.931L175.515 26.896H156.507ZM174.587 33.584L172.795 46.288H155.771L157.563 33.584H174.587ZM168.347 43.312L169.275 36.624H161.979L161.051 43.312H168.347ZM178.329 36.336H177.817L178.265 33.2H178.873L180.249 25.008H182.681L183.001 24.336L182.457 23.28H187.609L186.841 25.008H190.937L189.785 33.2H190.521L190.073 36.336H189.337L188.089 45.136C188.046 45.4987 187.907 45.776 187.673 45.968C187.459 46.1387 187.214 46.224 186.937 46.224H182.393L184.473 44.016L185.561 36.336H182.073L180.377 46.224H176.697L178.329 36.336ZM189.561 45.68L191.545 31.536H204.633L203.769 37.744C203.683 38.3413 203.427 38.8107 203.001 39.152C202.595 39.4933 202.094 39.664 201.497 39.664H197.401L199.225 37.488L199.641 34.544H195.705L194.585 42.384H202.265L203.897 40.88L203.225 45.68H189.561ZM194.073 24.176L193.401 23.248H203.513L205.337 30.8H200.313L199.257 26.288H197.849L195.641 30.832H190.777L194.073 24.176ZM182.617 33.2H186.009L186.777 27.792H183.545L182.617 33.2ZM182.137 37.2H184.665L184.441 42.096H181.817L182.137 37.2ZM183.513 28.688H186.041L185.945 32.368H183.321L183.513 28.688ZM221.366 28.144L218.006 35.92L219.03 43.28H216.214L215.862 40.368L214.774 43.312H212.054L211.638 46.224H206.71L209.686 25.04L208.758 23.824H234.23L231.35 44.4C231.265 44.9333 230.998 45.3813 230.55 45.744C230.102 46.0853 229.622 46.256 229.11 46.256H223.542L226.614 43.344V43.28H223.734L223.382 40.4L222.262 43.312H219.03L222.422 35.696L221.398 28.144H224.438L224.694 31.28L225.718 28.144H228.662L225.59 35.856L226.646 43.12L228.918 26.864H214.358L214.166 28.144H217.046L217.206 31.28L218.23 28.144H221.366ZM212.214 42.032L214.966 35.696L214.134 28.336L212.214 42.032ZM248.916 42.704L247.668 42.832L247.188 46.288H242.932L243.348 43.248L235.988 43.92L236.532 39.952L237.428 39.888L239.252 26.896H238.388L238.804 23.856H250.964L250.548 26.896H249.908L248.244 38.864L249.492 38.736L248.916 42.704ZM252.948 32.976L253.972 29.936H250.708L251.156 26.896H252.532L252.308 24.016L251.668 23.248H256.532L256.756 26.896H258.228L259.54 23.248H263.828L262.516 26.896H263.316L262.868 29.936H259.7L258.676 32.976H263.06L262.644 36.016H259.604L261.172 46.288H256.052L255.252 41.2L253.524 46.288H248.404L251.892 36.016H249.268L249.684 32.976H252.948ZM242.484 34.192H244.628L244.98 31.76H242.836L242.484 34.192ZM241.748 39.472L243.924 39.28L244.212 37.232H242.068L241.748 39.472ZM243.252 28.72H245.396L245.652 26.896H243.508L243.252 28.72ZM285.361 42.704L282.897 46.288H272.561L271.761 45.552L270.737 46.288H264.657L269.041 43.088L266.641 40.88L267.057 37.84H265.873L266.289 34.8H267.473L267.633 33.776H271.889L271.729 34.8H274.769L274.929 33.776H279.185L279.025 34.8H280.273L279.857 37.84H278.609L278.193 40.88L275.153 43.088L278.257 45.968L283.313 38.608L280.529 32.976H285.393L286.161 34.512L287.217 32.976V32.944L287.793 28.72H286.641L285.553 31.76H280.689L283.441 23.984L282.833 23.248H288.593L287.729 25.68H294.001L293.585 28.72H292.657L292.081 32.944L288.177 38.608L292.017 46.288H287.153L285.361 42.704ZM268.785 29.936H266.961L267.409 26.896H272.273L272.625 24.432L272.081 23.248H277.041L276.529 26.896H281.393L280.945 29.936H278.961L280.433 33.584H276.785L275.889 31.376L275.569 33.584H271.313L271.665 31.152L270.097 33.584H266.449L268.785 29.936ZM278.161 23.856H281.809L280.849 26.288H277.201L278.161 23.856ZM271.729 26.288H268.081L267.825 23.856H271.473L271.729 26.288ZM274.161 39.376L274.353 37.84H271.313L271.121 39.376L272.465 40.624L274.161 39.376ZM309.967 31.344L307.151 46.224H302.543L306.735 23.856H323.375L322.319 31.344H309.967ZM313.967 32.88L314.127 31.888H318.511L318.351 32.88H322.223L321.839 35.696H317.967L317.711 37.456H321.263L320.111 45.68H308.143L309.295 37.456H313.327L313.583 35.696H309.679L310.062 32.88H313.967ZM298.895 27.152L299.311 24.24L298.511 23.312H304.431L303.887 27.152H305.327L304.911 29.968H303.503L302.959 33.84L304.335 33.424L303.855 36.752L302.479 37.168L301.519 44.144C301.433 44.7627 301.156 45.2747 300.687 45.68C300.217 46.064 299.673 46.256 299.055 46.256H294.159L296.623 43.376L297.263 38.768L295.311 39.344L295.791 35.984L297.743 35.408L298.511 29.968H296.591L297.007 27.152H298.895ZM318.703 26.704H311.087L310.767 28.816H318.383L318.703 26.704ZM316.495 43.056L316.879 40.304H313.039L312.655 43.056H316.495ZM328.844 25.2L327.82 23.856H352.14L350.668 34.32H344.94L343.724 42.864H350.828L350.444 45.68H324.3L324.684 42.864H331.66L332.844 34.32H327.564L328.844 25.2ZM344.748 41.968L346.604 35.344H350.86L348.972 41.968H344.748ZM326.572 42.064V35.408H330.796L330.764 42.064H326.572ZM333.004 27.728H347.244L347.436 26.32H333.196L333.004 27.728ZM346.668 31.856L346.828 30.672H332.588L332.428 31.856H346.668ZM336.812 42.864H338.572L339.788 34.32H337.996L336.812 42.864ZM361.161 46.288L364.01 43.312L365.45 32.976H355.722L356.17 29.936H381.706L381.258 32.976H371.53L369.962 44.176C369.876 44.7947 369.599 45.3067 369.13 45.712C368.66 46.096 368.116 46.288 367.498 46.288H361.161ZM380.714 23.856L380.298 26.896H358.41L358.826 23.856H380.714ZM379.402 35.408L380.33 43.92H374.858L373.642 35.408H379.402ZM362.698 35.408L359.05 43.92H353.578L357.226 35.408H362.698ZM410.823 23.856L410.407 26.896H401.255L400.167 34.8H410.503L410.087 37.84H399.751L398.567 46.288H392.487L393.671 37.84H383.335L383.751 34.8H394.087L395.175 26.896H386.087L386.503 23.856H410.823ZM403.559 28.112H409.031L407.047 33.584H401.575L403.559 28.112ZM393.063 33.584H387.591L387.143 28.112H392.615L393.063 33.584ZM438.821 34.8L437.285 45.648H413.765L415.301 34.8H438.821ZM437.029 24.496L439.301 33.584H434.117L433.989 33.104H415.461L415.781 30.8L420.389 24.016L419.621 23.28H427.525L422.725 30.16H433.253L431.845 24.496H437.029ZM431.685 42.608L432.357 37.808H420.837L420.165 42.608H431.685Z" fill="white"/>
</g>
<defs>
<filter id="filter0_f_139_2175" x="4" y="-10" width="90" height="90" filterUnits="userSpaceOnUse" color-interpolation-filters="sRGB">
<feFlood flood-opacity="0" result="BackgroundImageFix"/>
<feBlend mode="normal" in="SourceGraphic" in2="BackgroundImageFix" result="shape"/>
<feGaussianBlur stdDeviation="0" result="effect1_foregroundBlur_139_2175"/>
</filter>
<radialGradient id="paint0_radial_139_2175" cx="0" cy="0" r="1" gradientUnits="userSpaceOnUse" gradientTransform="translate(482 -2.0346e-06) rotate(-180) scale(52.9569 49.4406)">
<stop stop-color="#5488FD"/>
<stop offset="1" stop-color="#5488FD" stop-opacity="0"/>
</radialGradient>
<linearGradient id="paint1_linear_139_2175" x1="0" y1="35" x2="482" y2="35" gradientUnits="userSpaceOnUse">
<stop stop-color="#5488FD"/>
<stop offset="1" stop-color="#5488FD" stop-opacity="0"/>
</linearGradient>
<linearGradient id="paint2_linear_139_2175" x1="36.3687" y1="60" x2="68" y2="35" gradientUnits="userSpaceOnUse">
<stop stop-color="#5488FD"/>
<stop offset="1" stop-color="white" stop-opacity="0.1"/>
</linearGradient>
</defs>
</svg>
